<?xml version="1.0" standalone="no"?>
<!DOCTYPE svg PUBLIC "-//W3C//DTD SVG 20010904//EN"
 "http://www.w3.org/TR/2001/REC-SVG-20010904/DTD/svg10.dtd">
<svg version="1.0" xmlns="http://www.w3.org/2000/svg"
 width="225.000000pt" height="225.000000pt" viewBox="0 0 225.000000 225.000000"
 preserveAspectRatio="xMidYMid meet">

<g transform="translate(0.000000,225.000000) scale(0.100000,-0.100000)"
fill="#000000" stroke="none">
<path d="M2015 2224 c-44 -8 -114 -24 -155 -35 -69 -19 -229 -76 -240 -86 -5
-4 472 -483 482 -483 12 0 67 156 97 273 34 133 55 301 40 328 -8 16 -21 19
-77 18 -37 0 -103 -7 -147 -15z"/>
<path d="M777 1574 c-225 -41 -419 -147 -595 -325 -82 -83 -172 -207 -172
-237 0 -11 6 -25 14 -31 13 -11 336 -105 341 -99 1 2 21 41 44 87 89 176 210
349 366 524 47 53 85 97 83 96 -2 0 -38 -7 -81 -15z"/>
<path d="M1323 1510 c-46 -27 -66 -72 -61 -132 12 -122 156 -165 237 -72 25
28 31 43 31 82 0 113 -113 180 -207 122z"/>
<path d="M957 1125 c-48 -17 -67 -33 -84 -72 -27 -66 -5 -138 54 -174 27 -17
45 -20 86 -16 42 4 56 10 83 40 44 47 51 92 26 150 -30 67 -97 96 -165 72z"/>
<path d="M1544 819 c-117 -123 -366 -303 -557 -404 -61 -32 -104 -61 -102 -68
2 -7 23 -79 46 -162 22 -82 46 -156 51 -162 19 -24 55 -13 126 37 251 176 427
448 471 729 6 36 9 66 8 68 -2 1 -21 -16 -43 -38z"/>
</g>
</svg>
